#!OML:ASF F:\VICON\USERDATA\INSTALL\rory3\rory3.ASF
:FULLY-SPECIFIED
:DEGREES
750
root -0.369164 16.891 7.55536 -118.955 -38.8265 144.808
lowerback 0.591258 -5.27511 -1.89166
upperback -5.90891 -7.79277 -3.96624
thorax -6.82092 -4.06796 -2.55051
lowerneck -14.0028 -0.911307 -7.12046
upperneck 41.9028 -6.79578 6.88369
head 18.7059 -4.08492 2.88611
rclavicle 3.73715e-014 7.95139e-015
rhumerus -166.204 -136.815 114.8
rradius 24.9393
rwrist -56.0453
rhand -11.9527 7.55712
rfingers 7.12502
rthumb 14.1026 -21.9443
lclavicle 3.73715e-014 7.95139e-015
lhumerus -34.1114 5.96213 28.2915
lradius 21.4324
lwrist 5.58514
lhand 5.34702 25.3864
lfingers 7.12502
lthumb 30.7009 52.8444
rfemur -61.973 -15.7171 10.183
rtibia 44.3322
rfoot -30.442 -20.3642
rtoes 18.7447
lfemur -15.3023 -8.69157 2.25264
ltibia 31.2218
lfoot -52.3322 12.8107
ltoes 53.0106
751
root -0.403424 16.9687 7.52034 -121.765 -40.1863 147.683
lowerback 1.08168 -5.05934 0.82903
upperback -5.88377 -7.30505 -3.53343
thorax -7.33817 -3.93165 -3.57461
lowerneck -13.9695 -1.00883 -7.10879
upperneck 41.9755 -6.91658 6.65273
head 18.7421 -4.17929 2.74422
rclavicle 9.54166e-014 2.70347e-014
rhumerus -169.355 -136.34 114.493
rradius 25.4544
rwrist -59.3022
rhand -10.6728 6.88343
rfingers 7.12502
rthumb 15.3356 -22.5279
lclavicle 9.54166e-014 2.70347e-014
lhumerus -35.4401 5.25431 30.2868
lradius 22.1356
lwrist 11.5997
lhand 9.7188 22.7494
lfingers 7.12502
lthumb 34.8596 49.3381
rfemur -59.8311 -14.3058 12.5975
rtibia 42.8437
rfoot -30.8369 -20.2414
rtoes 18.0813
lfemur -15.8022 -7.88743 3.0415
ltibia 31.4542
lfoot -50.5059 14.9497
ltoes 53.1231
752
root -0.429262 17.0112 7.47313 -124.127 -39.9689 149.922
lowerback 1.41877 -4.74082 1.35475
upperback -5.87511 -6.81427 -3.31087
thorax -7.51756 -3.69868 -3.64541
lowerneck -13.9302 -1.05192 -6.97095
upperneck 42.0203 -6.91549 6.28991
head 18.7286 -4.21861 2.53959
rclavicle 4.6118e-014 8.90555e-014
rhumerus -172.645 -136.619 114.52
rradius 26.0001
rwrist -61.3549
rhand -10.4873 6.59258
rfingers 7.12502
rthumb 15.5144 -22.805
lclavicle 4.6118e-014 8.90555e-014
lhumerus -36.9689 3.25207 33.3511
lradius 24.1554
lwrist 18.3232
lhand 12.9628 22.8661
lfingers 7.12502
lthumb 37.9308 48.6841
rfemur -57.9503 -12.4568 13.3489
rtibia 41.4938
rfoot -31.217 -20.7014
rtoes 14.835
lfemur -16.1027 -7.49293 2.20673
ltibia 31.6095
lfoot -48.9745 15.6204
ltoes 52.9522
753
root -0.445167 17.0341 7.40245 -125.597 -39.0849 151.666
lowerback 1.1946 -4.26534 0.945288
upperback -6.13073 -6.21615 -3.26326
thorax -7.55873 -3.38899 -3.43262
lowerneck -13.7025 -1.12901 -6.81152
upperneck 42.091 -7.06861 6.02025
head 18.7022 -4.31602 2.3474
rclavicle 3.49861e-014 2.54444e-014
rhumerus -176.423 -137.227 115.1
rradius 26.4101
rwrist -62.3022
rhand -10.2328 6.9956
rfingers 7.12502
rthumb 15.7595 -22.3828
lclavicle 3.49861e-014 2.54444e-014
lhumerus -38.4079 1.3479 36.2535
lradius 25.9615
lwrist 23.6987
lhand 16.5715 22.2581
lfingers 7.12502
lthumb 41.3288 47.069
rfemur -56.7661 -10.2391 13.1797
rtibia 40.1842
rfoot -32.2192 -21.1445
rtoes 14.5185
lfemur -17.0135 -7.27779 0.8109
ltibia 31.7407
lfoot -46.5249 18.0885
ltoes 52.4985
754
root -0.44897 17.0296 7.30496 -125.717 -36.7223 152.3
lowerback 0.028404 -3.71973 -1.5937
upperback -6.47012 -5.66955 -3.51717
thorax -6.98289 -3.01908 -2.41454
lowerneck -13.5439 -1.26831 -7.07534
upperneck 41.9893 -7.34352 6.25696
head 18.6568 -4.45371 2.45129
rclavicle -8.82604e-014 3.18055e-015
rhumerus -179.786 -138.177 115.554
rradius 26.6062
rwrist -62.5385
rhand -9.28129 7.67677
rfingers 7.12502
rthumb 16.6757 -21.6269
lclavicle -8.82604e-014 3.18055e-015
lhumerus -39.7045 -0.378601 39.2195
lradius 27.5734
lwrist 28.0704
lhand 20.0921 21.3582
lfingers 7.12502
lthumb 44.6209 45.0056
rfemur -56.6701 -7.59467 11.0905
rtibia 39.2444
rfoot -33.2086 -21.8282
rtoes 14.8252
lfemur -18.4382 -7.57758 -2.22844
ltibia 31.5703
lfoot -48.5057 13.2805
ltoes 52.9006
755
root -0.466549 17.0673 7.26602 -127.3 -36.5859 154.318
lowerback -0.143133 -3.60967 -0.954767
upperback -6.54422 -5.43852 -3.01291
thorax -6.95669 -2.91302 -2.26686
lowerneck -13.5134 -1.28447 -7.5253
upperneck 41.6437 -7.1771 6.38654
head 18.4448 -4.43592 2.62201
rclavicle 5.56597e-015 3.33958e-014
rhumerus -182.155 -140.307 115.291
rradius 26.9069
rwrist -62.5035
rhand -8.73416 8.43274
rfingers 7.12502
rthumb 17.2023 -20.8258
lclavicle 5.56597e-015 3.33958e-014
lhumerus -41.4861 -1.66195 42.5032
lradius 29.541
lwrist 32.1464
lhand 22.1105 21.2584
lfingers 7.12502
lthumb 46.4959 44.1436
rfemur -55.7988 -5.97271 11.9752
rtibia 38.3112
rfoot -33.7055 -22.2667
rtoes 12.9954
lfemur -19.8214 -7.12621 -2.68562
ltibia 31.6082
lfoot -47.9416 12.82
ltoes 52.9173
